<svg id="Layer_1" data-name="Layer 1" xmlns="http://www.w3.org/2000/svg" viewBox="0 0 50.51 43.39"><defs><style>.cls-1{fill:#171616;}.cls-2{fill:#feb511;}.cls-3{fill:#eea10a;}.cls-4{fill:#008d34;}</style></defs><path class="cls-1" d="M43.13,6.25a9.18,9.18,0,0,1-2.59.91,5.23,5.23,0,0,1-3.28-.49c-.28-.15-.34-.08-.42.18-.16.44-.35.87-.54,1.3-.06.14-.09.24.08.34a19.8,19.8,0,0,1,1.78,1.39,16.71,16.71,0,0,1,3.11,4.43A7.41,7.41,0,0,1,42,16.92s0,.09.08.14c0,.5,0,1,0,1.5a21.66,21.66,0,0,1-1.84,7.67c-.25.6-.24.59.25,1a22.17,22.17,0,0,1,4.78,5.17,3.75,3.75,0,0,1,.69,1.8A13.31,13.31,0,0,0,44.41,32a30,30,0,0,0-4.52-4.28c-.27-.22-.27.07-.33.19A32.56,32.56,0,0,1,32.78,37a2,2,0,0,0-.45.46c1.31.46,2.61.86,3.93,1.21a30.17,30.17,0,0,0,5.57,1,10.73,10.73,0,0,0,3.1-.05c.78,0,1.32-.28,2.67-1.27a2.39,2.39,0,0,1-1.61,3,8.64,8.64,0,0,1-2.43.46,26.45,26.45,0,0,1-3.33-.19,49.74,49.74,0,0,1-9.53-2.59.48.48,0,0,0-.53.12,23.1,23.1,0,0,1-4.9,2.74,19.7,19.7,0,0,1-6.1,1.45,25.81,25.81,0,0,1-4,0,13.17,13.17,0,0,1-2.9-.69c-.75-.38-1.53-.73-2.25-1.19a8.76,8.76,0,0,1-3.18-3.16,4.4,4.4,0,0,1-.54-2.82,7,7,0,0,1,2.07-3.74,13,13,0,0,0,2.11-2.84c.19-.32.17-.48-.15-.7a49.08,49.08,0,0,1-4.7-3.8.2.2,0,0,0-.19-.06C5,23.9,4.54,23.47,4.13,23a15.88,15.88,0,0,1-3.3-4.58,3.4,3.4,0,0,1,0-3L1,16l.1.32a4.73,4.73,0,0,0,.65,1.24c0,.13.08.2.16.27a11.64,11.64,0,0,0,1.9,2.46,20,20,0,0,0,1.95,2,49.56,49.56,0,0,0,5.64,4.54l.21-.54c1.37-3.64,2-7.52,3.5-11.13,0-.13.06-.2-.11-.24a25.63,25.63,0,0,0-3.23-.75,15.22,15.22,0,0,0-3.68-.41,4.91,4.91,0,0,0-1.27.08,3.71,3.71,0,0,0-1.81.68,2,2,0,0,0-.73,1.78,2.88,2.88,0,0,1-.4-1.37,2,2,0,0,1,1.22-2.05l.43-.14c.12,0,.27,0,.36-.11a2.32,2.32,0,0,0,.46,0,8.57,8.57,0,0,1,1.52-.1,14.46,14.46,0,0,1,1.85.11,29.66,29.66,0,0,1,3.5.69c.7.11,1.36.39,2.07.49.25,0,.37.14.5-.14a14.52,14.52,0,0,1,1.72-2.72A14,14,0,0,1,19.19,9.3a14,14,0,0,1,3.87-2,22,22,0,0,1,3.39-.89c.4,0,.82,0,1.22-.09a11.39,11.39,0,0,1,3.14.05,14.13,14.13,0,0,1,3.25.84c0,.09.11.06.17.06s.42.32.49.12A4.32,4.32,0,0,0,35.25,6c0-.09.16-.13.1-.25.16-.14,0-.37.16-.52a8.36,8.36,0,0,0,.27-2.39c0-.15.07-.32-.08-.44a3.84,3.84,0,0,0-.18-1.26A.85.85,0,1,1,37.14.68a8.22,8.22,0,0,1,.27,3.52,2.21,2.21,0,0,1-.09.7c.07,0,.14,0,.17,0A19.77,19.77,0,0,0,40.56,3a6.47,6.47,0,0,1,2.92-1.41,8,8,0,0,1,4.57.62,20.2,20.2,0,0,1,2.56,1.36c.26.16.46.36.37.69s-.37.4-.68.39a14.58,14.58,0,0,0-5.59.86A10.37,10.37,0,0,0,43.13,6.25ZM8,36a3.5,3.5,0,0,0,1.38,2.81,11.29,11.29,0,0,0,7.87,3,19.48,19.48,0,0,0,11.07-3.34c.07,0,.18-.08.19-.21l-3.75-1.63,0,0a89.79,89.79,0,0,1-12.4-7c-.23-.15-.3-.06-.41.13A14.17,14.17,0,0,1,9.46,33a5.55,5.55,0,0,0-.93,1.22A3.14,3.14,0,0,0,8,36ZM40,15.7a12.72,12.72,0,0,0-4.24-5.58c-.45-.33-.47-.31-.75.17-.14.25.08.33.17.46.34.54.16,1-.47.95a3,3,0,0,1-2.45-1.27c-.34-.47-.12-.88.46-.9a2.15,2.15,0,0,1,.51,0c.38.06.42-.27.52-.46s-.17-.21-.29-.26A9.15,9.15,0,0,0,32,8.33a14.75,14.75,0,0,0-9.35,1A9.76,9.76,0,0,0,17.52,14a29.12,29.12,0,0,0-2.11,5.58A81.53,81.53,0,0,1,13,27.34c-.13.32,0,.45.23.63a91.24,91.24,0,0,0,10.14,5.76,40.35,40.35,0,0,0,3.85,1.73c.91.47,1.88.79,2.82,1.2a.65.65,0,0,0,.79-.15,29.35,29.35,0,0,0,5.68-6.64,24.5,24.5,0,0,0,3.92-10.56A7.54,7.54,0,0,0,40,15.7ZM50,4a16.42,16.42,0,0,0-2.61-1.32,6,6,0,0,0-6.41.9,19.53,19.53,0,0,1-3.1,2c-.21.11-.59.17-.58.36s.39.32.63.41A5.12,5.12,0,0,0,42.18,6a26.56,26.56,0,0,1,2.48-1.14A17,17,0,0,1,50,4Z" transform="translate(-0.49 -0.04)"/><path class="cls-2" d="M27.22,35.46a40.35,40.35,0,0,1-3.85-1.73A91.24,91.24,0,0,1,13.23,28c-.27-.18-.36-.31-.23-.63a81.53,81.53,0,0,0,2.41-7.79A29.12,29.12,0,0,1,17.52,14,9.76,9.76,0,0,1,22.65,9.3a14.75,14.75,0,0,1,9.35-1,9.15,9.15,0,0,1,1.5.51c.12.05.39.05.29.26s-.14.52-.52.46a2.15,2.15,0,0,0-.51,0c-.58,0-.8.43-.46.9a3,3,0,0,0,2.45,1.27c.63,0,.81-.41.47-.95-.09-.13-.31-.21-.17-.46.28-.48.3-.5.75-.17A12.72,12.72,0,0,1,40,15.7a6,6,0,0,0-.18,1A24.69,24.69,0,0,1,38,22.61a30.81,30.81,0,0,1-5.37,8.15,25.41,25.41,0,0,1-5.06,4.36C27.43,35.21,27.25,35.26,27.22,35.46Z" transform="translate(-0.49 -0.04)"/><path class="cls-2" d="M8,36a3.14,3.14,0,0,1,.56-1.76A5.55,5.55,0,0,1,9.46,33a14.17,14.17,0,0,0,2.43-3.28c.11-.19.18-.28.41-.13a89.79,89.79,0,0,0,12.4,7l0,0c0,.16-.11.21-.24.26s-.53.22-.79.33a18.61,18.61,0,0,1-6.62,1.45,17.11,17.11,0,0,1-2.77-.09A11.29,11.29,0,0,1,12,38.1a13.2,13.2,0,0,1-3.67-2A.5.5,0,0,0,8,36Z" transform="translate(-0.49 -0.04)"/><path class="cls-3" d="M8,36a.5.5,0,0,1,.34.13,13.2,13.2,0,0,0,3.67,2,11.29,11.29,0,0,0,2.33.44,17.11,17.11,0,0,0,2.77.09,18.61,18.61,0,0,0,6.62-1.45c.26-.11.52-.23.79-.33s.23-.1.24-.26l3.75,1.63c0,.13-.12.16-.19.21a19.48,19.48,0,0,1-11.07,3.34,11.29,11.29,0,0,1-7.87-3A3.5,3.5,0,0,1,8,36Z" transform="translate(-0.49 -0.04)"/><path class="cls-3" d="M27.22,35.46c0-.2.21-.25.35-.34a25.41,25.41,0,0,0,5.06-4.36A30.81,30.81,0,0,0,38,22.61a24.69,24.69,0,0,0,1.86-5.88,6,6,0,0,1,.18-1,7.54,7.54,0,0,1,.39,3.61,24.5,24.5,0,0,1-3.92,10.56,29.35,29.35,0,0,1-5.68,6.64.65.65,0,0,1-.79.15C29.1,36.25,28.13,35.93,27.22,35.46Z" transform="translate(-0.49 -0.04)"/><path class="cls-4" d="M50,4a17,17,0,0,0-5.33.89A26.56,26.56,0,0,0,42.18,6a5.12,5.12,0,0,1-4.26.28c-.24-.09-.62-.14-.63-.41s.37-.25.58-.36a19.53,19.53,0,0,0,3.1-2,6,6,0,0,1,6.41-.9A16.42,16.42,0,0,1,50,4Z" transform="translate(-0.49 -0.04)"/></svg>